<?xml version="1.0" standalone="no"?>
<!DOCTYPE svg PUBLIC "-//W3C//DTD SVG 20010904//EN"
 "http://www.w3.org/TR/2001/REC-SVG-20010904/DTD/svg10.dtd">
<svg version="1.0" xmlns="http://www.w3.org/2000/svg"
 width="180.000000pt" height="180.000000pt" viewBox="0 0 180.000000 180.000000"
 preserveAspectRatio="xMidYMid meet">
<metadata>
Created by potrace 1.11, written by Peter Selinger 2001-2013
</metadata>
<g transform="translate(0.000000,180.000000) scale(0.100000,-0.100000)"
fill="#000000" stroke="none">
<path d="M0 900 l0 -900 900 0 900 0 0 900 0 900 -900 0 -900 0 0 -900z m694
370 c69 -26 134 -83 170 -150 15 -28 26 -53 24 -55 -3 -4 -107 -45 -112 -45
-2 0 -6 10 -10 23 -9 36 -76 108 -120 128 -48 22 -130 24 -190 7 -25 -8 -61
-32 -93 -63 -60 -59 -83 -121 -83 -225 0 -182 103 -296 265 -294 108 1 203 71
221 162 l7 32 -132 0 -131 0 0 50 0 50 190 0 190 0 0 -190 0 -190 -55 0 c-47
0 -55 3 -55 18 0 18 20 88 35 125 6 13 2 17 -17 17 -17 0 -29 -10 -42 -35 -53
-98 -163 -153 -283 -142 -200 19 -324 189 -311 429 5 97 41 188 102 255 41 46
136 100 198 113 61 13 168 3 232 -20z m936 -40 l0 -50 -225 0 -225 0 0 -120 0
-120 175 0 175 0 0 -55 0 -55 -175 0 -175 0 0 -160 0 -160 -55 0 -55 0 0 385
0 385 280 0 280 0 0 -50z"/>
</g>
</svg>
